<svg xmlns="http://www.w3.org/2000/svg" viewBox="0 0 48 48">
  <path fill="#F8DE22"
    d="M13.207 32.293a1 1 0 0 0-1.414 0L10.5 33.586l-1.293-1.293a1 1 0 1 0-1.414 1.414L9.086 35l-1.293 1.293a1 1 0 1 0 1.414 1.414l1.293-1.293 1.293 1.293a1 1 0 0 0 1.414-1.414L11.914 35l1.293-1.293a1 1 0 0 0 0-1.414zm9 0a1 1 0 0 0-1.414 0L19.5 33.586l-1.293-1.293a1 1 0 0 0-1.414 1.414L18.086 35l-1.293 1.293a1 1 0 1 0 1.414 1.414l1.293-1.293 1.293 1.293a1 1 0 0 0 1.414-1.414L20.914 35l1.293-1.293a1 1 0 0 0 0-1.414zm9 0a1 1 0 0 0-1.414 0L28.5 33.586l-1.293-1.293a1 1 0 0 0-1.414 1.414L27.086 35l-1.293 1.293a1 1 0 1 0 1.414 1.414l1.293-1.293 1.293 1.293a1 1 0 0 0 1.414-1.414L29.914 35l1.293-1.293a1 1 0 0 0 0-1.414zM38.914 35l1.293-1.293a1 1 0 0 0-1.414-1.414L37.5 33.586l-1.293-1.293a1 1 0 0 0-1.414 1.414L36.086 35l-1.293 1.293a1 1 0 1 0 1.414 1.414l1.293-1.293 1.293 1.293a1 1 0 0 0 1.414-1.414zM12.5 40h-4a1 1 0 0 0 0 2h4a1 1 0 0 0 0-2zm9 0h-4a1 1 0 0 0 0 2h4a1 1 0 0 0 0-2zm9 0h-4a1 1 0 0 0 0 2h4a1 1 0 0 0 0-2zm9 0h-4a1 1 0 0 0 0 2h4a1 1 0 0 0 0-2zm-6.95-24.4H30.7v-2a6.7 6.7 0 0 0-13.4 0v2h-1.85a.99.99 0 0 0-1 1V26a3.002 3.002 0 0 0 3 3h13.1a3.002 3.002 0 0 0 3-3v-9.4a.99.99 0 0 0-1-1zm-13.25-2a4.7 4.7 0 0 1 9.4 0v2h-9.4z" />
</svg>